<svg xmlns="http://www.w3.org/2000/svg" xmlns:xlink="http://www.w3.org/1999/xlink" contentStyleType="text/css" data-diagram-type="SEQUENCE" height="457px" preserveAspectRatio="none" style="width:973px;height:457px;background:#FFFFFF;" version="1.1" viewBox="0 0 973 457" width="973px" zoomAndPan="magnify"><title>&#129302; Bot Architecte - Diagramme de s&#233;quence RAG</title><defs/><g><text fill="#000000" font-family="sans-serif" font-size="14" font-weight="bold" lengthAdjust="spacing" textLength="311.9608" x="329.7942" y="28.0059">&#129302; Bot Architecte - Diagramme de s&#233;quence RAG</text><g><title>Utilisateur</title><rect fill="#FFFFFF" fill-opacity="0.00000" height="256.8001" width="8" x="35.1149" y="119.5999"/><line style="stroke:#181818;stroke-width:0.5;stroke-dasharray:5.0,5.0;" x1="39" x2="39" y1="119.5999" y2="376.4"/></g><g><title>Gradio / FastAPI</title><rect fill="#FFFFFF" fill-opacity="0.00000" height="256.8001" width="8" x="166.794" y="119.5999"/><line style="stroke:#181818;stroke-width:0.5;stroke-dasharray:5.0,5.0;" x1="170.0502" x2="170.0502" y1="119.5999" y2="376.4"/></g><g><title>RAG Bot</title><rect fill="#FFFFFF" fill-opacity="0.00000" height="256.8001" width="8" x="297.0171" y="119.5999"/><line style="stroke:#181818;stroke-width:0.5;stroke-dasharray:5.0,5.0;" x1="300.1653" x2="300.1653" y1="119.5999" y2="376.4"/></g><g><title>ChromaDB</title><rect fill="#FFFFFF" fill-opacity="0.00000" height="256.8001" width="8" x="597.3584" y="119.5999"/><line style="stroke:#181818;stroke-width:0.5;stroke-dasharray:5.0,5.0;" x1="600.7906" x2="600.7906" y1="119.5999" y2="376.4"/></g><g><title>sentence-transformers</title><rect fill="#FFFFFF" fill-opacity="0.00000" height="256.8001" width="8" x="734.947" y="119.5999"/><line style="stroke:#181818;stroke-width:0.5;stroke-dasharray:5.0,5.0;" x1="738.9263" x2="738.9263" y1="119.5999" y2="376.4"/></g><g><title>LLM via Ollama</title><rect fill="#FFFFFF" fill-opacity="0.00000" height="256.8001" width="8" x="892.7584" y="119.5999"/><line style="stroke:#181818;stroke-width:0.5;stroke-dasharray:5.0,5.0;" x1="895.9677" x2="895.9677" y1="119.5999" y2="376.4"/></g><g><text fill="#000000" font-family="sans-serif" font-size="14" lengthAdjust="spacing" textLength="62.2297" x="5" y="115.8059">Utilisateur</text><ellipse cx="39.1149" cy="51.2999" fill="#E2E2F0" rx="8" ry="8" style="stroke:#181818;stroke-width:0.5;"/><path d="M39.1149,59.2999 L39.1149,86.2999 M26.1149,67.2999 L52.1149,67.2999 M39.1149,86.2999 L26.1149,101.2999 M39.1149,86.2999 L52.1149,101.2999 " fill="#FFFFFF" fill-opacity="0.00000" style="stroke:#181818;stroke-width:0.5;"/></g><g><text fill="#000000" font-family="sans-serif" font-size="14" lengthAdjust="spacing" textLength="62.2297" x="5" y="388.4059">Utilisateur</text><ellipse cx="39.1149" cy="400.6999" fill="#E2E2F0" rx="8" ry="8" style="stroke:#181818;stroke-width:0.5;"/><path d="M39.1149,408.6999 L39.1149,435.6999 M26.1149,416.6999 L52.1149,416.6999 M39.1149,435.6999 L26.1149,450.6999 M39.1149,435.6999 L52.1149,450.6999 " fill="#FFFFFF" fill-opacity="0.00000" style="stroke:#181818;stroke-width:0.5;"/></g><g><rect fill="#E2E2F0" height="47.5999" rx="2.5" ry="2.5" style="stroke:#181818;stroke-width:0.5;" width="117.4876" x="112.0502" y="71"/><text fill="#000000" font-family="sans-serif" font-size="14" lengthAdjust="spacing" textLength="103.4876" x="119.0502" y="91.0059">Gradio / FastAPI</text><text fill="#000000" font-family="sans-serif" font-size="14" lengthAdjust="spacing" textLength="23.3239" x="159.132" y="107.8059">(UI)</text></g><g><rect fill="#E2E2F0" height="47.5999" rx="2.5" ry="2.5" style="stroke:#181818;stroke-width:0.5;" width="117.4876" x="112.0502" y="375.4"/><text fill="#000000" font-family="sans-serif" font-size="14" lengthAdjust="spacing" textLength="103.4876" x="119.0502" y="395.4059">Gradio / FastAPI</text><text fill="#000000" font-family="sans-serif" font-size="14" lengthAdjust="spacing" textLength="23.3239" x="159.132" y="412.2058">(UI)</text></g><g><rect fill="#E2E2F0" height="47.5999" rx="2.5" ry="2.5" style="stroke:#181818;stroke-width:0.5;" width="95.7037" x="253.1653" y="71"/><text fill="#000000" font-family="sans-serif" font-size="14" lengthAdjust="spacing" textLength="55.2438" x="273.3952" y="91.0059">RAG Bot</text><text fill="#000000" font-family="sans-serif" font-size="14" lengthAdjust="spacing" textLength="81.7037" x="260.1653" y="107.8059">(Python App)</text></g><g><rect fill="#E2E2F0" height="47.5999" rx="2.5" ry="2.5" style="stroke:#181818;stroke-width:0.5;" width="95.7037" x="253.1653" y="375.4"/><text fill="#000000" font-family="sans-serif" font-size="14" lengthAdjust="spacing" textLength="55.2438" x="273.3952" y="395.4059">RAG Bot</text><text fill="#000000" font-family="sans-serif" font-size="14" lengthAdjust="spacing" textLength="81.7037" x="260.1653" y="412.2058">(Python App)</text></g><g><rect fill="#E2E2F0" height="47.5999" rx="2.5" ry="2.5" style="stroke:#181818;stroke-width:0.5;" width="101.1357" x="550.7906" y="71"/><text fill="#000000" font-family="sans-serif" font-size="14" lengthAdjust="spacing" textLength="69.2297" x="566.7436" y="91.0059">ChromaDB</text><text fill="#000000" font-family="sans-serif" font-size="14" lengthAdjust="spacing" textLength="87.1357" x="557.7906" y="107.8059">(Vector Store)</text></g><g><rect fill="#E2E2F0" height="47.5999" rx="2.5" ry="2.5" style="stroke:#181818;stroke-width:0.5;" width="101.1357" x="550.7906" y="375.4"/><text fill="#000000" font-family="sans-serif" font-size="14" lengthAdjust="spacing" textLength="69.2297" x="566.7436" y="395.4059">ChromaDB</text><text fill="#000000" font-family="sans-serif" font-size="14" lengthAdjust="spacing" textLength="87.1357" x="557.7906" y="412.2058">(Vector Store)</text></g><g><rect fill="#E2E2F0" height="47.5999" rx="2.5" ry="2.5" style="stroke:#181818;stroke-width:0.5;" width="154.0414" x="661.9263" y="71"/><text fill="#000000" font-family="sans-serif" font-size="14" lengthAdjust="spacing" textLength="140.0414" x="668.9263" y="91.0059">sentence-transformers</text><text fill="#000000" font-family="sans-serif" font-size="14" lengthAdjust="spacing" textLength="80.1357" x="698.8792" y="107.8059">(Embedding)</text></g><g><rect fill="#E2E2F0" height="47.5999" rx="2.5" ry="2.5" style="stroke:#181818;stroke-width:0.5;" width="154.0414" x="661.9263" y="375.4"/><text fill="#000000" font-family="sans-serif" font-size="14" lengthAdjust="spacing" textLength="140.0414" x="668.9263" y="395.4059">sentence-transformers</text><text fill="#000000" font-family="sans-serif" font-size="14" lengthAdjust="spacing" textLength="80.1357" x="698.8792" y="412.2058">(Embedding)</text></g><g><rect fill="#E2E2F0" height="47.5999" rx="2.5" ry="2.5" style="stroke:#181818;stroke-width:0.5;" width="141.5815" x="825.9677" y="71"/><text fill="#000000" font-family="sans-serif" font-size="14" lengthAdjust="spacing" textLength="97.2436" x="848.1367" y="91.0059">LLM via Ollama</text><text fill="#000000" font-family="sans-serif" font-size="14" lengthAdjust="spacing" textLength="127.5815" x="832.9677" y="107.8059">(Mistral / DeepSeek)</text></g><g><rect fill="#E2E2F0" height="47.5999" rx="2.5" ry="2.5" style="stroke:#181818;stroke-width:0.5;" width="141.5815" x="825.9677" y="375.4"/><text fill="#000000" font-family="sans-serif" font-size="14" lengthAdjust="spacing" textLength="97.2436" x="848.1367" y="395.4059">LLM via Ollama</text><text fill="#000000" font-family="sans-serif" font-size="14" lengthAdjust="spacing" textLength="127.5815" x="832.9677" y="412.2058">(Mistral / DeepSeek)</text></g><g><polygon fill="#181818" points="158.794,147.1999,168.794,151.1999,158.794,155.1999,162.794,151.1999" style="stroke:#181818;stroke-width:1;"/><line style="stroke:#181818;stroke-width:1;" x1="39.1149" x2="164.794" y1="151.1999" y2="151.1999"/><text fill="#000000" font-family="sans-serif" font-size="13" lengthAdjust="spacing" textLength="107.6791" x="46.1149" y="145.6769">Pose une question</text></g><g><polygon fill="#181818" points="289.0171,176.7999,299.0171,180.7999,289.0171,184.7999,293.0171,180.7999" style="stroke:#181818;stroke-width:1;"/><line style="stroke:#181818;stroke-width:1;" x1="170.794" x2="295.0171" y1="180.7999" y2="180.7999"/><text fill="#000000" font-family="sans-serif" font-size="13" lengthAdjust="spacing" textLength="106.2231" x="177.794" y="175.2769">Envoie la question</text></g><g><polygon fill="#181818" points="589.3584,206.3999,599.3584,210.3999,589.3584,214.3999,593.3584,210.3999" style="stroke:#181818;stroke-width:1;"/><line style="stroke:#181818;stroke-width:1;" x1="301.0171" x2="595.3584" y1="210.3999" y2="210.3999"/><text fill="#000000" font-family="sans-serif" font-size="13" lengthAdjust="spacing" textLength="276.3413" x="308.0171" y="204.8769">Recherche s&#233;mantique (embedding + similarit&#233;)</text></g><g><polygon fill="#181818" points="312.0171,235.9999,302.0171,239.9999,312.0171,243.9999,308.0171,239.9999" style="stroke:#181818;stroke-width:1;"/><line style="stroke:#181818;stroke-width:1;stroke-dasharray:2.0,2.0;" x1="306.0171" x2="600.3584" y1="239.9999" y2="239.9999"/><text fill="#000000" font-family="sans-serif" font-size="13" lengthAdjust="spacing" textLength="137.9691" x="318.0171" y="234.4769">Top-K chunks similaires</text></g><g><polygon fill="#181818" points="884.7584,265.5999,894.7584,269.5999,884.7584,273.5999,888.7584,269.5999" style="stroke:#181818;stroke-width:1;"/><line style="stroke:#181818;stroke-width:1;" x1="301.0171" x2="890.7584" y1="269.5999" y2="269.5999"/><text fill="#000000" font-family="sans-serif" font-size="13" lengthAdjust="spacing" textLength="175.5912" x="308.0171" y="264.0769">Prompt = [Context + Question]</text></g><g><polygon fill="#181818" points="312.0171,295.1999,302.0171,299.1999,312.0171,303.1999,308.0171,299.1999" style="stroke:#181818;stroke-width:1;"/><line style="stroke:#181818;stroke-width:1;stroke-dasharray:2.0,2.0;" x1="306.0171" x2="895.7584" y1="299.1999" y2="299.1999"/><text fill="#000000" font-family="sans-serif" font-size="13" lengthAdjust="spacing" textLength="103.3371" x="318.0171" y="293.6769">R&#233;ponse g&#233;n&#233;r&#233;e</text></g><g><polygon fill="#181818" points="181.794,324.7999,171.794,328.7999,181.794,332.7999,177.794,328.7999" style="stroke:#181818;stroke-width:1;"/><line style="stroke:#181818;stroke-width:1;" x1="175.794" x2="300.0171" y1="328.7999" y2="328.7999"/><text fill="#000000" font-family="sans-serif" font-size="13" lengthAdjust="spacing" textLength="104.0521" x="187.794" y="323.2769">Affiche la r&#233;ponse</text></g><g><polygon fill="#181818" points="50.1149,354.4,40.1149,358.4,50.1149,362.4,46.1149,358.4" style="stroke:#181818;stroke-width:1;"/><line style="stroke:#181818;stroke-width:1;stroke-dasharray:2.0,2.0;" x1="44.1149" x2="169.794" y1="358.4" y2="358.4"/><text fill="#000000" font-family="sans-serif" font-size="13" lengthAdjust="spacing" textLength="101.1661" x="56.1149" y="352.877">R&#233;ponse affich&#233;e</text></g><!--SRC=[LP4nJiD044NxFSM8YWXPz4WWEHXG114X8JH0CJYJU8IzQtOd4Lo4beR6v_25E0ApJWX9Osbttl_xvrjOIeAVh-zFw3k1rES52-L2a436kF1OLGGpWj0sRqkoES4ulJ86St4Ufi8b1nHQUbEZ5ywvHYjmSELnnWwEuHA3fAF1apsS3de7W06cWtrKxUBJIem-f70MqhfUatgxZvuNtbMOzPLze2x0H3-qfhF-FXp8IioRY4SRvivNv8CgBweNcitOBjOoFUxhRcw6i6A4sxB42bKmvA0MfIwJ4TKJejUrKa5ZTXg0v4oNWnCOkK2mj0HQM11srkYr3cF19t1XLuu9IlmVcpXH8ElhV4nvGVeRkiehZSJAmI7znOOZ25nnYPwbRNh6g2hPkj-xEhc6l5ZQrx3Xs5FOFX6tquJQOorm2e_dJbjw5pMzswHvDf7vTnotJUsiRhHe6zislcrewzQjcyxd7EFgHdx3TWl7-KuxEqxOAQBHBm00]--></g></svg>